<?xml version="1.0" encoding="utf-8"?>
<!-- Generator: Adobe Illustrator 22.0.0, SVG Export Plug-In . SVG Version: 6.00 Build 0)  -->
<svg version="1.1" xmlns="http://www.w3.org/2000/svg" xmlns:xlink="http://www.w3.org/1999/xlink" x="0px" y="0px"
	 viewBox="0 0 79 100" style="enable-background:new 0 0 79 100;" xml:space="preserve">
<style type="text/css">
	.st0{display:none;}
	.st1{fill:#000206;}
	.st2{fill:#FFFFFF;}
	.st3{fill:#BF0000;}
	.st4{fill:#4ABAFF;}
</style>
<g id="Escudo" class="st0">
	
		<image style="overflow:visible;opacity:0.3;enable-background:new    ;" width="325" height="412" xlink:href="76CDBB84.png"  transform="matrix(0.2431 0 0 0.2431 0 0)">
	</image>
</g>
<g id="Trazo">
	<path id="Contorno" class="st1" d="M72.9,96.2H50.6c-2.1,0.1-4.1,0.6-5.9,1.2c-1.9,0.7-3.6,1.4-5.2,2.6c-1.6-1.2-3.4-1.9-5.3-2.6
		c-1.8-0.7-3.8-1.1-5.9-1.2H6.1l0,0c-3.4,0-6.1-2.7-6.1-6.1l0,0V0h79v90.1l0,0C79,93.5,76.3,96.2,72.9,96.2
		C72.9,96.2,72.9,96.2,72.9,96.2z M72,94.8c3.3,0,5.9-2.7,5.9-5.9l0,0V1h-77v87.9l0,0c0,3.3,2.7,5.9,5.9,5.9l0,0h21.7
		c2.1,0.1,4,0.5,5.8,1.2c1.8,0.7,3.6,1.3,5.1,2.5c1.6-1.2,3.2-1.8,5.1-2.5c1.8-0.7,3.7-1.1,5.8-1.2H72C72,94.8,72,94.8,72,94.8z"/>
</g>
<g id="Bandas">
	<path id="cuar-inf_1_" class="st2" d="M39.5,56.3H78v32.6l0,0c0,3.3-2.7,5.9-5.9,5.9l0,0H50.4c-2.1,0.1-4,0.5-5.8,1.2
		c-1.8,0.7-3.6,1.3-5.1,2.5"/>
	<path id="cuar-inf" class="st3" d="M39.5,98.5c-1.6-1.2-3.3-1.8-5.1-2.5c-1.8-0.7-3.7-1.1-5.8-1.2H6.8l0,0c-3.3,0-5.9-2.7-5.9-5.9
		l0,0V56.3h38.5"/>
	<rect id="cuab-sup" x="0.9" y="17.8" class="st2" width="38.5" height="38.5"/>
	<rect id="cuar-sup" x="39.5" y="17.8" class="st3" width="38.5" height="38.5"/>
</g>
<g id="bandera">
	<rect id="banda-inf" x="0.9" y="12.2" class="st4" width="77" height="5.6"/>
	<rect id="banda-mid" x="0.9" y="6.6" class="st2" width="77" height="5.6"/>
	<rect id="banda-sup" x="0.9" y="1" class="st4" width="77" height="5.6"/>
</g>
</svg>
